# xmcd
#
# Track frame offsets:
# 150
# 14831
# 28093
# 41094
# 50384
# 64336
# 76386
# 90944
# 103215
# 116520
# 132023
# 144618
# 155625
# 172497
# 185845
# 199005
# 210454
# 224948
# 237515
# 251981
#
# Disc length: 3540 seconds
#
#
# Revision: 0
# Processed by: cddbd v1.5.2PL0 Copyright (c) Steve Scherf et al.
# Submitted via: FreeRIP 2.96 
#
DISCID=3e0dd214
DTITLE=Red Foley - Famous Country Music Makers
DYEAR=2004
DGENRE=Country
TTITLE0=Old Shep
TTITLE1=Smoke On The Water
TTITLE2=Hang Your Head In Shame
TTITLE3=Shame On You
TTITLE4=New Jolie Blonde (New Pretty Blonde)
TTITLE5=Tennessee Saturday Night
TTITLE6=Never Trust A Woman
TTITLE7=Tennessee Border
TTITLE8=Candy Kisses
TTITLE9=Tennessee Polka
TTITLE10=Chattanoogie Shoe Shine Boy
TTITLE11=Sugarfoot Rag
TTITLE12=Steal Away
TTITLE13=Birmingham Bounce
TTITLE14=Just A Closer Walk With Thee
TTITLE15=M-I-S-S-I-S-S-I-P-P-I
TTITLE16=Midnight
TTITLE17=Alabama Jubilee
TTITLE18=(There'll Be) Peace In The Valley (For Me)
TTITLE19=Goodnight Irene (with Ernest Tubb)
EXTD=
EXTT0=
EXTT1=
EXTT2=
EXTT3=
EXTT4=
EXTT5=
EXTT6=
EXTT7=
EXTT8=
EXTT9=
EXTT10=
EXTT11=
EXTT12=
EXTT13=
EXTT14=
EXTT15=
EXTT16=
EXTT17=
EXTT18=
EXTT19=
PLAYORDER=
